<svg width="295" height="267" viewBox="0 0 295 267" fill="none" xmlns="http://www.w3.org/2000/svg">
<path d="M281.809 53.1686C265.696 27.0972 237.779 11.5322 207.13 11.5322H204.5C200.446 11.5322 197.161 14.818 197.161 18.8709C197.161 22.9239 200.446 26.2097 204.5 26.2097H207.13C232.654 26.2097 255.905 39.173 269.324 60.8851C282.743 82.5971 283.94 109.19 272.525 132.02L215.439 246.191C213.577 249.915 209.98 252.138 205.816 252.138C201.652 252.138 198.055 249.915 196.193 246.191L139.107 132.02C137.295 128.394 132.889 126.925 129.261 128.738C125.636 130.55 124.167 134.958 125.979 138.583L183.065 252.754C187.402 261.427 196.118 266.816 205.815 266.816C215.512 266.816 224.229 261.428 228.565 252.754L285.651 138.583C299.358 111.17 297.922 79.2389 281.809 53.1686Z" fill="#49167B"/>
<path d="M205.815 125.718C202.122 125.718 198.552 124.974 195.204 123.507C191.495 121.879 187.164 123.569 185.536 127.282C183.909 130.994 185.599 135.322 189.312 136.949C194.528 139.236 200.081 140.395 205.814 140.395C228.497 140.395 246.95 121.941 246.95 99.2582C246.95 76.5754 228.497 58.1218 205.814 58.1218C201.76 58.1218 198.475 61.4076 198.475 65.4606C198.475 69.5135 201.76 72.7993 205.814 72.7993C220.404 72.7993 232.273 84.6686 232.273 99.2582C232.274 113.849 220.405 125.718 205.815 125.718Z" fill="#49167B"/>
<path d="M205.702 104.81C207.979 98.8354 206.366 92.2256 201.594 87.9701L182.055 70.5488V29.0083C182.055 13.1154 169.125 0.184418 153.232 0.184418H28.8239C12.93 0.185396 0 13.1154 0 29.0083V85.8213C0 101.715 12.93 114.645 28.8239 114.645H191.428C197.822 114.645 203.425 110.785 205.702 104.81ZM14.6776 85.8213V29.0083C14.6776 21.2086 21.0232 14.862 28.8239 14.862H153.232C161.032 14.862 167.377 21.2076 167.377 29.0083V73.8366C167.377 75.9286 168.271 77.9218 169.832 79.3142L191.826 98.9245C191.977 99.0595 192.133 99.1985 191.987 99.583C191.84 99.9676 191.632 99.9676 191.429 99.9676H28.8239C21.0232 99.9676 14.6776 93.622 14.6776 85.8213Z" fill="#49167B"/>
<path d="M140.117 33.4458H41.1325C37.0785 33.4458 33.7937 36.7316 33.7937 40.7846C33.7937 44.8376 37.0785 48.1234 41.1325 48.1234H140.117C144.171 48.1234 147.456 44.8376 147.456 40.7846C147.456 36.7316 144.171 33.4458 140.117 33.4458Z" fill="#49167B"/>
<path d="M96.6597 66.7072H41.1325C37.0785 66.7072 33.7937 69.993 33.7937 74.046C33.7937 78.0989 37.0785 81.3848 41.1325 81.3848H96.6597C100.714 81.3848 103.999 78.0989 103.999 74.046C103.999 69.993 100.714 66.7072 96.6597 66.7072Z" fill="#49167B"/>
</svg>
